<svg xmlns="http://www.w3.org/2000/svg" width="18.929" height="16.88" viewBox="0 0 18.929 16.88">
  <g id="home" transform="translate(0 -26.353)">
    <g id="Grupo_7639" data-name="Grupo 7639" transform="translate(0 26.353)">
      <path id="Trazado_16444" data-name="Trazado 16444" d="M.654,36.405H2.2v6.167a.663.663,0,0,0,.661.661H7.372a.663.663,0,0,0,.661-.661V38.057h2.753v4.515a.663.663,0,0,0,.661.661h4.295a.663.663,0,0,0,.661-.661V36.405h1.872a.658.658,0,0,0,.463-1.123l-8.612-8.733a.658.658,0,0,0-.925-.011l-9,8.733A.661.661,0,0,0,.048,36,.644.644,0,0,0,.654,36.405Z" transform="translate(0 -26.353)" fill="#ec5a68"/>
    </g>
  </g>
</svg>
