<svg id="Grupo_10494" data-name="Grupo 10494" xmlns="http://www.w3.org/2000/svg" xmlns:xlink="http://www.w3.org/1999/xlink" width="184.26" height="77.047" viewBox="0 0 184.26 77.047">
  <defs>
    <clipPath id="clip-path">
      <rect id="Rectángulo_7748" data-name="Rectángulo 7748" width="184.26" height="77.047" fill="none"/>
    </clipPath>
  </defs>
  <rect id="Rectángulo_7719" data-name="Rectángulo 7719" width="2.861" height="2.861" transform="translate(0 47.871)" fill="#fff"/>
  <rect id="Rectángulo_7720" data-name="Rectángulo 7720" width="2.861" height="2.86" transform="translate(69.776 44.218)" fill="#fff"/>
  <rect id="Rectángulo_7721" data-name="Rectángulo 7721" width="2.861" height="2.861" transform="translate(72.637 35.636)" fill="#fff"/>
  <rect id="Rectángulo_7722" data-name="Rectángulo 7722" width="2.849" height="2.861" transform="translate(74.405 19.413)" fill="#fff"/>
  <rect id="Rectángulo_7723" data-name="Rectángulo 7723" width="2.861" height="2.861" transform="translate(45.562 35.222)" fill="#fff"/>
  <rect id="Rectángulo_7724" data-name="Rectángulo 7724" width="2.861" height="2.861" transform="translate(58.285 58.524)" fill="#fff"/>
  <rect id="Rectángulo_7725" data-name="Rectángulo 7725" width="2.861" height="2.861" transform="translate(60.728 21.034)" fill="#fff"/>
  <path id="Trazado_23934" data-name="Trazado 23934" d="M140.515,223.639v-2.875h-2.861v5.277h2.861Z" transform="translate(-112.981 -181.195)" fill="#fff"/>
  <rect id="Rectángulo_7726" data-name="Rectángulo 7726" width="2.861" height="2.861" transform="translate(36.981 26.64)" fill="#fff"/>
  <g id="Grupo_10493" data-name="Grupo 10493">
    <g id="Grupo_10492" data-name="Grupo 10492" clip-path="url(#clip-path)">
      <path id="Trazado_23935" data-name="Trazado 23935" d="M20.664,200.933h5.572V196.58a1.838,1.838,0,0,1,.542-1.308l2.238-2.237a4.759,4.759,0,0,1,3.388-1.4h2.479v-2.874H32.4A7.617,7.617,0,0,0,26.982,191l-2.237,2.238a4.693,4.693,0,0,0-1.384,3.34v1.478h-2.7a4.744,4.744,0,0,0-4.74,4.739H18.8a1.866,1.866,0,0,1,1.865-1.864" transform="translate(-13.07 -154.926)" fill="#fff"/>
      <path id="Trazado_23936" data-name="Trazado 23936" d="M178.953,364.773V360.8a5.373,5.373,0,0,0-5.368-5.367h-9.143v3.046a.5.5,0,0,1-.5.5h-1.865v2.874h1.865a3.38,3.38,0,0,0,3.376-3.375v-.172h6.268a2.5,2.5,0,0,1,2.493,2.492v3.973a4.006,4.006,0,0,0,4,4h.717V365.9h-.717a1.128,1.128,0,0,1-1.127-1.127" transform="translate(-133.026 -291.727)" fill="#fff"/>
      <rect id="Rectángulo_7727" data-name="Rectángulo 7727" width="2.854" height="2.861" transform="translate(39.847 23.779)" fill="#fff"/>
      <rect id="Rectángulo_7728" data-name="Rectángulo 7728" width="2.849" height="2.861" transform="translate(77.255 16.553)" fill="#fff"/>
      <rect id="Rectángulo_7729" data-name="Rectángulo 7729" width="2.861" height="2.861" transform="translate(23.317 67.257)" fill="#fff"/>
      <rect id="Rectángulo_7730" data-name="Rectángulo 7730" width="2.861" height="2.861" transform="translate(24.672 33.848)" fill="#fff"/>
      <rect id="Rectángulo_7731" data-name="Rectángulo 7731" width="2.861" height="2.861" transform="translate(2.861 50.732)" fill="#fff"/>
      <rect id="Rectángulo_7732" data-name="Rectángulo 7732" width="2.861" height="2.861" transform="translate(66.911 41.357)" fill="#fff"/>
      <rect id="Rectángulo_7733" data-name="Rectángulo 7733" width="2.861" height="2.861" transform="translate(69.776 32.775)" fill="#fff"/>
      <rect id="Rectángulo_7734" data-name="Rectángulo 7734" width="2.861" height="2.857" transform="translate(42.701 32.364)" fill="#fff"/>
      <rect id="Rectángulo_7735" data-name="Rectángulo 7735" width="2.861" height="2.861" transform="translate(47.773 71.311)" fill="#fff"/>
      <rect id="Rectángulo_7736" data-name="Rectángulo 7736" width="2.861" height="2.861" transform="translate(26.183 64.397)" fill="#fff"/>
      <rect id="Rectángulo_7737" data-name="Rectángulo 7737" width="2.861" height="2.861" transform="translate(27.533 44.845)" fill="#fff"/>
      <rect id="Rectángulo_7738" data-name="Rectángulo 7738" width="2.861" height="2.861" transform="translate(69.776 38.498)" fill="#fff"/>
      <rect id="Rectángulo_7739" data-name="Rectángulo 7739" width="2.861" height="2.861" transform="translate(39.84 29.501)" fill="#fff"/>
      <rect id="Rectángulo_7740" data-name="Rectángulo 7740" width="2.861" height="2.861" transform="translate(63.591 23.894)" fill="#fff"/>
      <rect id="Rectángulo_7741" data-name="Rectángulo 7741" width="2.861" height="2.86" transform="translate(21.811 36.708)" fill="#fff"/>
      <rect id="Rectángulo_7742" data-name="Rectángulo 7742" width="2.861" height="2.861" transform="translate(34.006 8.581)" fill="#fff"/>
      <rect id="Rectángulo_7743" data-name="Rectángulo 7743" width="2.861" height="2.861" transform="translate(42.585 2.86)" fill="#fff"/>
      <path id="Trazado_23937" data-name="Trazado 23937" d="M189.684,0V2.861h2.861l0,0V5.722h2.861V0Z" transform="translate(-155.686 0)" fill="#fff"/>
      <path id="Trazado_23938" data-name="Trazado 23938" d="M245.02,69.637h0m1.689-4.614a1.742,1.742,0,0,1-1.74,1.74c-.4,0-.9.114-5.094,2.712l-.766.421v2.571a.859.859,0,0,1-.858.858V76.2a3.737,3.737,0,0,0,3.733-3.733V71.5c1.351-.822,2.78-1.652,3.277-1.872a4.621,4.621,0,0,0,4.322-4.605V63.868h-2.875Z" transform="translate(-195.548 -52.421)" fill="#fff"/>
      <path id="Trazado_23939" data-name="Trazado 23939" d="M224.486,34.78V31.919h-2.861V37.64h2.861Z" transform="translate(-181.902 -26.198)" fill="#fff"/>
      <path id="Trazado_23940" data-name="Trazado 23940" d="M161.285,56.283a5.3,5.3,0,0,0,5.109,3.923V57.331a2.414,2.414,0,0,1-2.412-2.411V53.483H162.1a1.55,1.55,0,0,1-1.549-1.548v-4.06h-2.875v4.06a4.431,4.431,0,0,0,3.612,4.348" transform="translate(-129.412 -39.294)" fill="#fff"/>
      <rect id="Rectángulo_7744" data-name="Rectángulo 7744" width="2.861" height="2.861" transform="translate(31.139 5.721)" fill="#fff"/>
      <rect id="Rectángulo_7745" data-name="Rectángulo 7745" width="2.861" height="2.861" transform="translate(36.981 20.912)" fill="#fff"/>
      <path id="Trazado_23941" data-name="Trazado 23941" d="M256.423,37.645h2.852V34.784h-2.852V31.923h-2.861v5.722h2.861Z" transform="translate(-208.115 -26.202)" fill="#fff"/>
      <path id="Trazado_23942" data-name="Trazado 23942" d="M45.669,313.738l-3.654-3.288v-1.467a3.748,3.748,0,0,0-.967-2.514L41,306.414l-6.155-5.549a2.02,2.02,0,0,1-.528-1.465v-.389H31.44v.389a4.879,4.879,0,0,0,1.356,3.485l.038.04,6.116,5.515a.876.876,0,0,1,.189.545v2.747l4.62,4.157.206.177c1.534,1.31,2.746,2.344,5.151,2.344v-2.875c-1.345,0-1.874-.451-3.284-1.656Z" transform="translate(-25.805 -245.417)" fill="#fff"/>
      <path id="Trazado_23943" data-name="Trazado 23943" d="M412.742,108.314v4.19a6.067,6.067,0,0,1-.978,3.5c-.4.559-1.541,1.931-2.269,2.8h-4.218v2.874h5.548l.431-.505c.089-.1,2.183-2.563,2.848-3.494a8.784,8.784,0,0,0,1.514-5.172v-4.19Z" transform="translate(-332.637 -88.9)" fill="#fff"/>
      <path id="Trazado_23944" data-name="Trazado 23944" d="M273.5,141.769h-3.334v2.874h3.459a2.75,2.75,0,0,0,2.744-2.619h1.912a4.2,4.2,0,0,0,4.2-4.2v-1.651h-.007v-2.861H279.61v2.861H279.6v1.651a1.324,1.324,0,0,1-1.323,1.322h-2.036a2.75,2.75,0,0,0-2.744,2.619" transform="translate(-221.743 -109.421)" fill="#fff"/>
      <path id="Trazado_23945" data-name="Trazado 23945" d="M169.588,170.486v9.443h2.875v-9.443a3.026,3.026,0,0,1,3.023-3.023h.682v-2.874h-.682a5.9,5.9,0,0,0-5.9,5.9" transform="translate(-139.192 -135.089)" fill="#fff"/>
      <path id="Trazado_23946" data-name="Trazado 23946" d="M298.575,264.109l-4.033,2.452h-2.615a3.777,3.777,0,1,0,0,7.554h2.861v-2.874h-2.861a.9.9,0,0,1,0-1.805h3.431l4.727-2.881a6.791,6.791,0,0,1,3.568-1.01h2.627v-2.874h-2.627a9.66,9.66,0,0,0-5.077,1.438" transform="translate(-236.503 -215.591)" fill="#fff"/>
      <path id="Trazado_23947" data-name="Trazado 23947" d="M375.27,98.28l2.05-2.667c.239-.312.434-.5,1.38-.5V92.235a4.144,4.144,0,0,0-3.659,1.626l-2.049,2.667a.5.5,0,0,1-.392.193H370.75V99.6H372.6a3.39,3.39,0,0,0,2.672-1.316" transform="translate(-304.299 -75.703)" fill="#fff"/>
      <path id="Trazado_23948" data-name="Trazado 23948" d="M295.879,342.483h-2.861v2.861h-.007v2.62l-.907,2.147a1.048,1.048,0,0,1-.968.641h-1.908l-1.407,2.958a2.738,2.738,0,0,1-2.462,1.555v.007H282.5v2.861h2.858v.007a5.628,5.628,0,0,0,5.058-3.194l.628-1.318h.091a3.917,3.917,0,0,0,3.616-2.4l1.133-2.683v-3.2h-.007Z" transform="translate(-231.869 -281.098)" fill="#fff"/>
      <path id="Trazado_23949" data-name="Trazado 23949" d="M525.77,99.815H522.2V97.937h9.225v1.877h-3.574V109.6H525.77Z" transform="translate(-428.6 -80.383)" fill="#fff"/>
      <path id="Trazado_23950" data-name="Trazado 23950" d="M574.177,121.147a1.862,1.862,0,0,0-.544-1.375,2.04,2.04,0,0,0-1.466-.5,1.921,1.921,0,0,0-1.408.511,2.279,2.279,0,0,0-.634,1.367Zm-4.052,1.482a2.005,2.005,0,0,0,.692,1.383,2.164,2.164,0,0,0,1.433.494,2.355,2.355,0,0,0,1.244-.3,3.449,3.449,0,0,0,.881-.766l1.417,1.071a4.012,4.012,0,0,1-1.548,1.219,4.561,4.561,0,0,1-1.8.362,4.75,4.75,0,0,1-1.68-.3,4.03,4.03,0,0,1-1.367-.84,3.979,3.979,0,0,1-.914-1.309,4.471,4.471,0,0,1,0-3.409,3.979,3.979,0,0,1,.914-1.31,4.032,4.032,0,0,1,1.367-.84,4.746,4.746,0,0,1,1.68-.3,3.845,3.845,0,0,1,1.507.288,3.239,3.239,0,0,1,1.17.832,3.844,3.844,0,0,1,.757,1.342,5.688,5.688,0,0,1,.272,1.836v.544Z" transform="translate(-466.316 -96.675)" fill="#fff"/>
      <path id="Trazado_23951" data-name="Trazado 23951" d="M626.7,120.355a3.145,3.145,0,0,0-.725-.576,1.56,1.56,0,0,0-.774-.214,2.255,2.255,0,0,0-1.7.725,2.22,2.22,0,0,0-.461.757,2.6,2.6,0,0,0,0,1.779,2.219,2.219,0,0,0,.461.758,2.254,2.254,0,0,0,1.7.724,1.956,1.956,0,0,0,.857-.189,1.859,1.859,0,0,0,.675-.552l1.318,1.416a3.035,3.035,0,0,1-.683.51,4.647,4.647,0,0,1-.782.346,4.839,4.839,0,0,1-.758.189,4.056,4.056,0,0,1-.626.057,4.743,4.743,0,0,1-1.68-.3,4.033,4.033,0,0,1-1.367-.84,3.985,3.985,0,0,1-.914-1.309,4.475,4.475,0,0,1,0-3.409,3.987,3.987,0,0,1,.914-1.309,4.031,4.031,0,0,1,1.367-.84,4.751,4.751,0,0,1,1.68-.3,4.313,4.313,0,0,1,1.524.288,3.479,3.479,0,0,1,1.342.914Z" transform="translate(-509.614 -96.675)" fill="#fff"/>
      <path id="Trazado_23952" data-name="Trazado 23952" d="M667.4,117.984h1.878v1.268h.033a2.772,2.772,0,0,1,.857-1.03,2.536,2.536,0,0,1,1.565-.436,3.1,3.1,0,0,1,1.342.263,2.546,2.546,0,0,1,.9.691,2.62,2.62,0,0,1,.494.988,4.549,4.549,0,0,1,.148,1.17v4.99h-1.977v-4q0-.329-.033-.733a2.639,2.639,0,0,0-.173-.758A1.419,1.419,0,0,0,672,119.8a1.251,1.251,0,0,0-.807-.239,1.891,1.891,0,0,0-.832.165,1.6,1.6,0,0,0-.56.445,1.767,1.767,0,0,0-.321.642,2.863,2.863,0,0,0-.1.757v4.315H667.4Z" transform="translate(-547.781 -96.675)" fill="#fff"/>
      <path id="Trazado_23953" data-name="Trazado 23953" d="M719.927,121.937a2.567,2.567,0,0,0,.156.889,2.23,2.23,0,0,0,.461.758,2.337,2.337,0,0,0,3.41,0,2.226,2.226,0,0,0,.461-.758,2.6,2.6,0,0,0,0-1.778,2.228,2.228,0,0,0-.461-.757,2.336,2.336,0,0,0-3.41,0,2.232,2.232,0,0,0-.461.757,2.571,2.571,0,0,0-.156.889m-1.977,0a4.179,4.179,0,0,1,.338-1.7,3.978,3.978,0,0,1,.914-1.31,4.032,4.032,0,0,1,1.367-.84,4.913,4.913,0,0,1,3.361,0,4.033,4.033,0,0,1,1.367.84,3.988,3.988,0,0,1,.914,1.31,4.471,4.471,0,0,1,0,3.409,3.927,3.927,0,0,1-2.282,2.149,4.908,4.908,0,0,1-3.361,0,4.027,4.027,0,0,1-1.367-.84,3.98,3.98,0,0,1-.914-1.309,4.181,4.181,0,0,1-.338-1.7" transform="translate(-589.268 -96.675)" fill="#fff"/>
      <rect id="Rectángulo_7746" data-name="Rectángulo 7746" width="1.977" height="12.451" transform="translate(139.158 16.763)" fill="#fff"/>
      <path id="Trazado_23954" data-name="Trazado 23954" d="M803.062,97.938h2.24l-2.323,2.372h-1.548Zm-3.179,7.708a2.564,2.564,0,0,0,.156.889,2.228,2.228,0,0,0,.461.758,2.337,2.337,0,0,0,3.41,0,2.226,2.226,0,0,0,.461-.758,2.6,2.6,0,0,0,0-1.778,2.227,2.227,0,0,0-.461-.757,2.336,2.336,0,0,0-3.41,0,2.229,2.229,0,0,0-.461.757,2.569,2.569,0,0,0-.156.889m-1.977,0a4.176,4.176,0,0,1,.338-1.7,3.979,3.979,0,0,1,.914-1.31,4.025,4.025,0,0,1,1.367-.84,4.912,4.912,0,0,1,3.36,0,4.031,4.031,0,0,1,1.367.84,3.99,3.99,0,0,1,.914,1.31,4.471,4.471,0,0,1,0,3.409,3.927,3.927,0,0,1-2.282,2.149,4.907,4.907,0,0,1-3.36,0,3.928,3.928,0,0,1-2.281-2.149,4.178,4.178,0,0,1-.338-1.7" transform="translate(-654.893 -80.384)" fill="#fff"/>
      <path id="Trazado_23955" data-name="Trazado 23955" d="M858.283,119.566a2.529,2.529,0,0,0-.956.173,2.1,2.1,0,0,0-1.211,1.219,2.6,2.6,0,0,0-.173.963,2.276,2.276,0,0,0,.173.89,2.244,2.244,0,0,0,.486.724,2.3,2.3,0,0,0,.741.494,2.339,2.339,0,0,0,.923.181,2.531,2.531,0,0,0,.98-.181,2.26,2.26,0,0,0,.741-.486,2.074,2.074,0,0,0,.47-.733,2.555,2.555,0,0,0,.165-.923,2.3,2.3,0,0,0-.626-1.68,2.282,2.282,0,0,0-1.713-.642m4.217-1.581v7.2a6.635,6.635,0,0,1-.264,1.935,3.745,3.745,0,0,1-.816,1.466,3.682,3.682,0,0,1-1.392.931,5.456,5.456,0,0,1-1.993.329,7.644,7.644,0,0,1-2.092-.28,4.681,4.681,0,0,1-1.828-1.021l1.186-1.614a4.832,4.832,0,0,0,1.236.84,3.5,3.5,0,0,0,1.482.3,3.181,3.181,0,0,0,1.194-.2,1.931,1.931,0,0,0,.774-.544,2.083,2.083,0,0,0,.412-.831,4.384,4.384,0,0,0,.124-1.079v-.576h-.033a2.606,2.606,0,0,1-1.137.865,3.815,3.815,0,0,1-1.45.288,3.94,3.94,0,0,1-1.614-.321,3.858,3.858,0,0,1-1.244-.864,3.761,3.761,0,0,1-.8-1.285,4.419,4.419,0,0,1-.28-1.581,4.926,4.926,0,0,1,.264-1.63,3.762,3.762,0,0,1,.774-1.318,3.668,3.668,0,0,1,1.227-.881,3.967,3.967,0,0,1,1.639-.321,3.738,3.738,0,0,1,1.565.329,2.544,2.544,0,0,1,1.153,1.054h.033v-1.186Z" transform="translate(-700.906 -96.675)" fill="#fff"/>
      <path id="Trazado_23956" data-name="Trazado 23956" d="M912.973,101.164h1.977v7.906h-1.977Zm-.28-2.685a1.139,1.139,0,0,1,.354-.832,1.217,1.217,0,0,1,.9-.354,1.307,1.307,0,0,1,.914.338,1.156,1.156,0,0,1,0,1.7,1.306,1.306,0,0,1-.914.338,1.216,1.216,0,0,1-.9-.354,1.138,1.138,0,0,1-.354-.832" transform="translate(-749.106 -79.855)" fill="#fff"/>
      <path id="Trazado_23957" data-name="Trazado 23957" d="M941.559,120.355a3.14,3.14,0,0,0-.725-.576,1.558,1.558,0,0,0-.774-.214,2.255,2.255,0,0,0-1.7.725,2.224,2.224,0,0,0-.461.757,2.6,2.6,0,0,0,0,1.779,2.224,2.224,0,0,0,.461.758,2.254,2.254,0,0,0,1.7.724,1.956,1.956,0,0,0,.857-.189,1.862,1.862,0,0,0,.676-.552l1.318,1.416a3.037,3.037,0,0,1-.683.51,4.645,4.645,0,0,1-.782.346,4.841,4.841,0,0,1-.758.189,4.054,4.054,0,0,1-.626.057,4.745,4.745,0,0,1-1.68-.3,4.035,4.035,0,0,1-1.367-.84,3.981,3.981,0,0,1-.914-1.309,4.47,4.47,0,0,1,0-3.409,3.983,3.983,0,0,1,.914-1.309,4.033,4.033,0,0,1,1.367-.84,4.753,4.753,0,0,1,1.68-.3,4.314,4.314,0,0,1,1.524.288,3.482,3.482,0,0,1,1.342.914Z" transform="translate(-768.04 -96.675)" fill="#fff"/>
      <path id="Trazado_23958" data-name="Trazado 23958" d="M982.035,121.937a2.567,2.567,0,0,0,.156.889,2.227,2.227,0,0,0,.461.758,2.337,2.337,0,0,0,3.41,0,2.226,2.226,0,0,0,.461-.758,2.6,2.6,0,0,0,0-1.778,2.228,2.228,0,0,0-.461-.757,2.336,2.336,0,0,0-3.41,0,2.229,2.229,0,0,0-.461.757,2.571,2.571,0,0,0-.156.889m-1.977,0a4.178,4.178,0,0,1,.338-1.7,3.978,3.978,0,0,1,.914-1.31,4.033,4.033,0,0,1,1.367-.84,4.913,4.913,0,0,1,3.361,0,3.928,3.928,0,0,1,2.282,2.149,4.471,4.471,0,0,1,0,3.409,3.929,3.929,0,0,1-2.282,2.149,4.907,4.907,0,0,1-3.361,0,4.027,4.027,0,0,1-1.367-.84,3.98,3.98,0,0,1-.914-1.309,4.18,4.18,0,0,1-.338-1.7" transform="translate(-804.397 -96.675)" fill="#fff"/>
      <path id="Trazado_23959" data-name="Trazado 23959" d="M530.908,196.576a1.915,1.915,0,0,0-.881-.7,3.075,3.075,0,0,0-1.161-.223,2.934,2.934,0,0,0-.7.083,1.9,1.9,0,0,0-.61.263,1.378,1.378,0,0,0-.436.469,1.353,1.353,0,0,0-.165.684,1.067,1.067,0,0,0,.412.906,4.025,4.025,0,0,0,1.021.544q.609.231,1.334.444a5.445,5.445,0,0,1,1.334.593,3.308,3.308,0,0,1,1.021,1,2.986,2.986,0,0,1,.412,1.663,3.655,3.655,0,0,1-.346,1.639,3.337,3.337,0,0,1-.931,1.161,4.021,4.021,0,0,1-1.359.692,5.7,5.7,0,0,1-1.631.23,6.125,6.125,0,0,1-2.092-.363,4.022,4.022,0,0,1-1.73-1.219l1.565-1.515a2.62,2.62,0,0,0,1,.9,2.8,2.8,0,0,0,1.31.321,2.737,2.737,0,0,0,.725-.1,2.245,2.245,0,0,0,.659-.3,1.55,1.55,0,0,0,.478-.5,1.341,1.341,0,0,0,.181-.7,1.219,1.219,0,0,0-.412-.988,3.649,3.649,0,0,0-1.021-.585q-.609-.238-1.334-.453a5.618,5.618,0,0,1-1.334-.585,3.241,3.241,0,0,1-1.021-.988,2.943,2.943,0,0,1-.411-1.655,3.14,3.14,0,0,1,.37-1.564,3.385,3.385,0,0,1,.972-1.1,4.245,4.245,0,0,1,1.375-.65,5.907,5.907,0,0,1,1.581-.214,5.764,5.764,0,0,1,1.787.28,4.134,4.134,0,0,1,1.557.922Z" transform="translate(-430.41 -159.045)" fill="#fff"/>
      <path id="Trazado_23960" data-name="Trazado 23960" d="M587.769,224.286h-1.878v-1.268h-.033a2.768,2.768,0,0,1-.856,1.03,2.535,2.535,0,0,1-1.565.436,3.188,3.188,0,0,1-1.342-.255,2.421,2.421,0,0,1-.9-.692,2.688,2.688,0,0,1-.494-1,4.53,4.53,0,0,1-.149-1.169V216.38h1.977v4c0,.22.011.464.033.733a2.613,2.613,0,0,0,.173.757,1.452,1.452,0,0,0,.428.594,1.245,1.245,0,0,0,.815.238,1.888,1.888,0,0,0,.832-.165,1.6,1.6,0,0,0,.56-.445,1.768,1.768,0,0,0,.321-.643,2.852,2.852,0,0,0,.1-.757V216.38h1.977Z" transform="translate(-476.498 -177.597)" fill="#fff"/>
      <path id="Trazado_23961" data-name="Trazado 23961" d="M639.862,219.427a2.573,2.573,0,0,0-.156-.889,2.242,2.242,0,0,0-.461-.757,2.336,2.336,0,0,0-3.41,0,2.23,2.23,0,0,0-.461.757,2.611,2.611,0,0,0,0,1.779,2.221,2.221,0,0,0,.461.758,2.337,2.337,0,0,0,3.41,0,2.233,2.233,0,0,0,.461-.758,2.57,2.57,0,0,0,.156-.889m-6.556-3.953h1.878v1.186h.033a2.542,2.542,0,0,1,1.153-1.054,3.735,3.735,0,0,1,1.565-.33,3.991,3.991,0,0,1,1.631.321,3.657,3.657,0,0,1,1.235.881,3.773,3.773,0,0,1,.774,1.318,4.934,4.934,0,0,1,.264,1.63,4.657,4.657,0,0,1-.28,1.63,4.05,4.05,0,0,1-.782,1.318,3.6,3.6,0,0,1-1.211.881,3.707,3.707,0,0,1-1.548.321,3.826,3.826,0,0,1-.989-.115,3.4,3.4,0,0,1-.758-.3,3.022,3.022,0,0,1-.56-.387,2.788,2.788,0,0,1-.379-.4h-.049v4.76h-1.977Z" transform="translate(-519.795 -176.692)" fill="#fff"/>
      <path id="Trazado_23962" data-name="Trazado 23962" d="M695.03,218.639a1.861,1.861,0,0,0-.544-1.375,2.038,2.038,0,0,0-1.466-.5,1.92,1.92,0,0,0-1.408.51,2.28,2.28,0,0,0-.634,1.367Zm-4.052,1.482a2.006,2.006,0,0,0,.692,1.384A2.166,2.166,0,0,0,693.1,222a2.359,2.359,0,0,0,1.244-.305,3.451,3.451,0,0,0,.881-.766L696.644,222a4.018,4.018,0,0,1-1.548,1.218,4.566,4.566,0,0,1-1.8.362,4.75,4.75,0,0,1-1.68-.3,4.031,4.031,0,0,1-1.367-.84,3.98,3.98,0,0,1-.914-1.309,4.47,4.47,0,0,1,0-3.409,3.985,3.985,0,0,1,.914-1.309,4.036,4.036,0,0,1,1.367-.84,4.754,4.754,0,0,1,1.68-.3,3.846,3.846,0,0,1,1.507.288,3.232,3.232,0,0,1,1.169.832,3.841,3.841,0,0,1,.758,1.342,5.688,5.688,0,0,1,.272,1.836v.543Z" transform="translate(-565.508 -176.693)" fill="#fff"/>
      <path id="Trazado_23963" data-name="Trazado 23963" d="M743.958,215.475h1.977v1.252h.033a2.485,2.485,0,0,1,.939-1.071,2.6,2.6,0,0,1,1.4-.379,1.936,1.936,0,0,1,.354.033q.173.034.355.083v1.91q-.247-.065-.486-.107a2.783,2.783,0,0,0-.469-.041,2.125,2.125,0,0,0-1.112.255,2.03,2.03,0,0,0-.642.585,1.952,1.952,0,0,0-.3.659,2.494,2.494,0,0,0-.074.495v4.232h-1.977Z" transform="translate(-610.615 -176.692)" fill="#fff"/>
      <path id="Trazado_23964" data-name="Trazado 23964" d="M778.61,198.656h1.977v7.906H778.61Zm-.28-2.684a1.139,1.139,0,0,1,.354-.832,1.218,1.218,0,0,1,.9-.354,1.308,1.308,0,0,1,.914.338,1.156,1.156,0,0,1,0,1.7,1.307,1.307,0,0,1-.914.338,1.216,1.216,0,0,1-.9-.354,1.137,1.137,0,0,1-.354-.831" transform="translate(-638.826 -159.874)" fill="#fff"/>
      <path id="Trazado_23965" data-name="Trazado 23965" d="M803.374,219.427a2.562,2.562,0,0,0,.157.889,2.221,2.221,0,0,0,.461.758,2.337,2.337,0,0,0,3.41,0,2.229,2.229,0,0,0,.461-.758,2.6,2.6,0,0,0,0-1.779,2.235,2.235,0,0,0-.461-.758,2.337,2.337,0,0,0-3.41,0,2.227,2.227,0,0,0-.461.758,2.564,2.564,0,0,0-.157.889m-1.976,0a4.179,4.179,0,0,1,.338-1.7,3.977,3.977,0,0,1,.914-1.31,4.033,4.033,0,0,1,1.367-.84,4.912,4.912,0,0,1,3.36,0,4.034,4.034,0,0,1,1.367.84,3.989,3.989,0,0,1,.914,1.31,4.471,4.471,0,0,1,0,3.409,3.927,3.927,0,0,1-2.282,2.149,4.907,4.907,0,0,1-3.36,0,4.027,4.027,0,0,1-1.367-.84,3.979,3.979,0,0,1-.914-1.309,4.181,4.181,0,0,1-.338-1.7" transform="translate(-657.759 -176.692)" fill="#fff"/>
      <path id="Trazado_23966" data-name="Trazado 23966" d="M859.664,215.475h1.977v1.252h.033a2.485,2.485,0,0,1,.939-1.071,2.6,2.6,0,0,1,1.4-.379,1.936,1.936,0,0,1,.354.033c.116.022.234.05.355.083v1.91q-.247-.065-.486-.107a2.785,2.785,0,0,0-.469-.041,2.125,2.125,0,0,0-1.112.255,2.029,2.029,0,0,0-.642.585,1.952,1.952,0,0,0-.3.659,2.486,2.486,0,0,0-.074.495v4.232h-1.977Z" transform="translate(-705.582 -176.692)" fill="#fff"/>
      <path id="Trazado_23967" data-name="Trazado 23967" d="M526.379,297.561a2.563,2.563,0,0,0,.156.89,2.223,2.223,0,0,0,.461.758,2.338,2.338,0,0,0,3.41,0,2.236,2.236,0,0,0,.461-.758,2.6,2.6,0,0,0,0-1.779,2.238,2.238,0,0,0-.461-.758,2.337,2.337,0,0,0-3.41,0,2.226,2.226,0,0,0-.461.758,2.565,2.565,0,0,0-.156.889m4.678,2.767h-.033a2.546,2.546,0,0,1-1.153,1.054,3.738,3.738,0,0,1-1.565.329,3.968,3.968,0,0,1-1.639-.321,3.677,3.677,0,0,1-1.227-.881,3.762,3.762,0,0,1-.774-1.318,4.925,4.925,0,0,1-.264-1.631,4.659,4.659,0,0,1,.28-1.63,4.05,4.05,0,0,1,.782-1.318,3.617,3.617,0,0,1,1.211-.881,3.707,3.707,0,0,1,1.549-.321,3.841,3.841,0,0,1,.988.115,3.442,3.442,0,0,1,.758.3,3.082,3.082,0,0,1,.56.387,2.859,2.859,0,0,1,.379.4h.049v-5.55h1.977v12.451h-1.878Z" transform="translate(-430.411 -237.253)" fill="#fff"/>
      <path id="Trazado_23968" data-name="Trazado 23968" d="M588.33,316.682a1.86,1.86,0,0,0-.544-1.375,2.039,2.039,0,0,0-1.466-.5,1.921,1.921,0,0,0-1.408.511,2.279,2.279,0,0,0-.634,1.367Zm-4.052,1.482a2.007,2.007,0,0,0,.692,1.383,2.164,2.164,0,0,0,1.433.494,2.358,2.358,0,0,0,1.244-.3,3.454,3.454,0,0,0,.881-.766l1.417,1.071a4.018,4.018,0,0,1-1.548,1.219,4.567,4.567,0,0,1-1.8.362,4.75,4.75,0,0,1-1.68-.3,4.026,4.026,0,0,1-1.367-.84,3.978,3.978,0,0,1-.914-1.309,4.47,4.47,0,0,1,0-3.409,3.98,3.98,0,0,1,.914-1.31,4.028,4.028,0,0,1,1.367-.84,4.746,4.746,0,0,1,1.68-.3,3.847,3.847,0,0,1,1.507.288,3.24,3.24,0,0,1,1.17.832,3.845,3.845,0,0,1,.758,1.342,5.7,5.7,0,0,1,.271,1.836v.544Z" transform="translate(-477.932 -257.164)" fill="#fff"/>
      <path id="Trazado_23969" data-name="Trazado 23969" d="M666.6,301.355a4.039,4.039,0,0,1-.223,1.334,3.258,3.258,0,0,1-.659,1.128,3.145,3.145,0,0,1-1.1.774,3.8,3.8,0,0,1-1.532.288,3.751,3.751,0,0,1-2.265-.642,3.169,3.169,0,0,1-1.161-2.042l1.943-.461a1.585,1.585,0,0,0,.47.922,1.289,1.289,0,0,0,.914.346,1.245,1.245,0,0,0,1.211-.6,3.543,3.543,0,0,0,.321-1.655v-7.823H666.6Z" transform="translate(-541.431 -240.421)" fill="#fff"/>
      <path id="Trazado_23970" data-name="Trazado 23970" d="M713.821,317.332h-.411q-.412,0-.923.033a4.834,4.834,0,0,0-.963.157,2.207,2.207,0,0,0-.766.362.792.792,0,0,0-.313.667.838.838,0,0,0,.124.469,1.115,1.115,0,0,0,.321.321,1.345,1.345,0,0,0,.445.19,2.168,2.168,0,0,0,.494.057,2.056,2.056,0,0,0,1.507-.486,1.792,1.792,0,0,0,.486-1.326Zm.115,2.454h-.049a2.545,2.545,0,0,1-1.087.98,3.415,3.415,0,0,1-1.45.3,3.832,3.832,0,0,1-1.062-.149,2.871,2.871,0,0,1-.922-.444,2.284,2.284,0,0,1-.651-.741,2.1,2.1,0,0,1-.247-1.037,2.381,2.381,0,0,1,.231-1.1,2.244,2.244,0,0,1,.617-.758,3.139,3.139,0,0,1,.9-.486,6.161,6.161,0,0,1,1.063-.271,9.479,9.479,0,0,1,1.112-.115q.56-.025,1.054-.025h.494v-.214a1.285,1.285,0,0,0-.511-1.112,2.162,2.162,0,0,0-1.3-.37,3.059,3.059,0,0,0-1.169.222,2.96,2.96,0,0,0-.939.6l-1.038-1.037a3.832,3.832,0,0,1,1.54-.972,5.668,5.668,0,0,1,1.82-.3,4.587,4.587,0,0,1,1.417.189,3.122,3.122,0,0,1,.955.486,2.159,2.159,0,0,1,.585.683,3.188,3.188,0,0,1,.3.782,4.269,4.269,0,0,1,.107.766q.016.37.017.65v4.546h-1.779Z" transform="translate(-581.486 -256.711)" fill="#fff"/>
      <rect id="Rectángulo_7747" data-name="Rectángulo 7747" width="1.977" height="12.451" transform="translate(136.388 51.711)" fill="#fff"/>
      <path id="Trazado_23971" data-name="Trazado 23971" d="M783.647,296.149h1.977v7.905h-1.977Zm-.28-2.685a1.139,1.139,0,0,1,.354-.831,1.218,1.218,0,0,1,.9-.354,1.307,1.307,0,0,1,.914.338,1.156,1.156,0,0,1,0,1.7,1.307,1.307,0,0,1-.914.338,1.217,1.217,0,0,1-.9-.354,1.139,1.139,0,0,1-.354-.832" transform="translate(-642.96 -239.892)" fill="#fff"/>
      <path id="Trazado_23972" data-name="Trazado 23972" d="M809.613,315.159a1.81,1.81,0,0,0-1.548-.807,1.656,1.656,0,0,0-.774.2.671.671,0,0,0-.379.642.553.553,0,0,0,.313.527,3.419,3.419,0,0,0,.791.28q.477.116,1.029.239a4.067,4.067,0,0,1,1.03.379,2.256,2.256,0,0,1,.791.7,2.087,2.087,0,0,1,.313,1.219,2.2,2.2,0,0,1-.305,1.194,2.394,2.394,0,0,1-.79.782,3.511,3.511,0,0,1-1.1.428,5.753,5.753,0,0,1-1.219.132,5.238,5.238,0,0,1-1.7-.263,3.222,3.222,0,0,1-1.384-.955l1.318-1.235a3.706,3.706,0,0,0,.815.7,1.973,1.973,0,0,0,1.063.272,2.124,2.124,0,0,0,.444-.049,1.442,1.442,0,0,0,.429-.165,1.009,1.009,0,0,0,.321-.288.677.677,0,0,0,.124-.4.67.67,0,0,0-.313-.609,2.782,2.782,0,0,0-.791-.321q-.478-.123-1.03-.23a3.981,3.981,0,0,1-1.029-.346,2.155,2.155,0,0,1-.791-.667,1.973,1.973,0,0,1-.313-1.186,2.31,2.31,0,0,1,.272-1.145,2.394,2.394,0,0,1,.716-.8,3.1,3.1,0,0,1,1.021-.461,4.663,4.663,0,0,1,2.734.123,2.56,2.56,0,0,1,1.252.931Z" transform="translate(-660.46 -256.711)" fill="#fff"/>
      <path id="Trazado_23973" data-name="Trazado 23973" d="M853.037,315.34a3.154,3.154,0,0,0-.725-.576,1.555,1.555,0,0,0-.774-.214,2.257,2.257,0,0,0-1.7.725,2.221,2.221,0,0,0-.461.757,2.6,2.6,0,0,0,0,1.779,2.224,2.224,0,0,0,.461.757,2.256,2.256,0,0,0,1.7.725,1.96,1.96,0,0,0,.857-.189,1.865,1.865,0,0,0,.676-.552l1.318,1.417a3.036,3.036,0,0,1-.684.511,4.658,4.658,0,0,1-.782.346,4.8,4.8,0,0,1-.758.189,4.075,4.075,0,0,1-.626.058,4.744,4.744,0,0,1-1.68-.3,4.035,4.035,0,0,1-1.367-.84,3.989,3.989,0,0,1-.914-1.309,4.473,4.473,0,0,1,0-3.409,3.985,3.985,0,0,1,.914-1.309,4.03,4.03,0,0,1,1.367-.84,4.747,4.747,0,0,1,1.68-.3,4.307,4.307,0,0,1,1.524.288,3.468,3.468,0,0,1,1.342.914Z" transform="translate(-695.384 -256.711)" fill="#fff"/>
      <path id="Trazado_23974" data-name="Trazado 23974" d="M893.514,316.92a2.565,2.565,0,0,0,.156.89,2.234,2.234,0,0,0,.461.757,2.337,2.337,0,0,0,3.41,0,2.232,2.232,0,0,0,.461-.757,2.6,2.6,0,0,0,0-1.779,2.237,2.237,0,0,0-.461-.758,2.337,2.337,0,0,0-3.41,0,2.239,2.239,0,0,0-.461.758,2.566,2.566,0,0,0-.156.889m-1.977,0a4.182,4.182,0,0,1,.338-1.7,3.928,3.928,0,0,1,2.281-2.149,4.907,4.907,0,0,1,3.361,0,3.928,3.928,0,0,1,2.281,2.149,4.468,4.468,0,0,1,0,3.409,3.987,3.987,0,0,1-.914,1.309,4.033,4.033,0,0,1-1.367.84,4.913,4.913,0,0,1-3.361,0,4.033,4.033,0,0,1-1.367-.84,3.981,3.981,0,0,1-.914-1.309,4.182,4.182,0,0,1-.338-1.7" transform="translate(-731.742 -256.711)" fill="#fff"/>
    </g>
  </g>
</svg>
